%TF.GenerationSoftware,Altium Limited,Altium Designer,25.0.2 (28)*%
G04 Layer_Color=65535*
%FSLAX45Y45*%
%MOMM*%
%TF.SameCoordinates,A0A746A1-3CD2-44F8-AC9A-FD4DD348DB9E*%
%TF.FilePolarity,Positive*%
%TF.FileFunction,Legend,Top*%
%TF.Part,Single*%
G01*
G75*
%TA.AperFunction,NonConductor*%
%ADD23C,0.20000*%
%ADD24C,0.25000*%
%ADD25C,0.10000*%
%ADD26C,0.15000*%
%ADD27C,0.25400*%
D23*
X8970500Y7463600D02*
G03*
X8970500Y7463600I-525000J0D01*
G01*
X7827500Y7454900D02*
G03*
X7827500Y7454900I-525000J0D01*
G01*
X8947602Y6976598D02*
Y7196602D01*
X9162598Y6976598D02*
Y7196602D01*
X10292200Y7131000D02*
X10561200D01*
Y7669000D01*
X10292200D02*
X10561200D01*
X10292200Y7131000D02*
Y7669000D01*
X11300450Y7104250D02*
Y7754750D01*
X10949950D02*
X11300450D01*
X10949950Y7104250D02*
Y7754750D01*
Y7104250D02*
X11300450D01*
X10071100Y7792602D02*
Y7865099D01*
Y7070099D02*
Y7142601D01*
X9946102D02*
X10196098D01*
Y7792602D01*
X9946102D02*
X10196098D01*
X9946102Y7142601D02*
Y7792602D01*
X9359900Y7070100D02*
Y7142602D01*
Y7792598D02*
Y7865100D01*
X9234902Y7792598D02*
X9484898D01*
X9234902Y7142602D02*
Y7792598D01*
Y7142602D02*
X9484898D01*
Y7792598D01*
X9740900D02*
Y7865100D01*
Y7070100D02*
Y7142602D01*
X9615902D02*
X9865898D01*
Y7792598D01*
X9615902D02*
X9865898D01*
X9615902Y7142602D02*
Y7792598D01*
X12146402Y7173199D02*
X12415398D01*
Y7711201D01*
X12146402D02*
X12415398D01*
X12146402Y7173199D02*
Y7711201D01*
X6708800Y7247799D02*
Y7712801D01*
X6473800D02*
X6708800D01*
X6473800Y7247799D02*
Y7712801D01*
Y7247799D02*
X6708800D01*
X6591300Y7120799D02*
Y7247799D01*
Y7712801D02*
Y7839801D01*
X6473800Y7585801D02*
X6708800D01*
X6075802Y6931899D02*
Y7977901D01*
X6344798D01*
Y6931899D02*
Y7977901D01*
X6075802Y6931899D02*
X6344798D01*
D24*
X10439200Y7714000D02*
G03*
X10439200Y7714000I-12500J0D01*
G01*
X11467200Y7079500D02*
G03*
X11467200Y7079500I-12500J0D01*
G01*
X12293400Y7756200D02*
G03*
X12293400Y7756200I-12500J0D01*
G01*
X6222800Y8022900D02*
G03*
X6222800Y8022900I-12500J0D01*
G01*
D25*
X9085301Y7319370D02*
X9077188Y7327912D01*
X9060532Y7328341D01*
X9051990Y7320228D01*
X9051132Y7286917D01*
X9059245Y7278374D01*
X9075901Y7277945D01*
X9084443Y7286059D01*
X9134196Y7276444D02*
X9100885Y7277302D01*
X9135054Y7309756D01*
X9135268Y7318084D01*
X9127154Y7326626D01*
X9110499Y7327055D01*
X9101957Y7318941D01*
X10621774Y7516220D02*
X10671757D01*
Y7491228D01*
X10663427Y7482898D01*
X10646765D01*
X10638435Y7491228D01*
Y7516220D01*
X10663427Y7466237D02*
X10671757Y7457906D01*
Y7441245D01*
X10663427Y7432914D01*
X10655096D01*
X10646765Y7441245D01*
Y7449575D01*
Y7441245D01*
X10638435Y7432914D01*
X10630104D01*
X10621774Y7441245D01*
Y7457906D01*
X10630104Y7466237D01*
X10671757Y7416253D02*
X10638435D01*
X10621774Y7399592D01*
X10638435Y7382930D01*
X10671757D01*
X10663427Y7366269D02*
X10671757Y7357939D01*
Y7341277D01*
X10663427Y7332947D01*
X10655096D01*
X10646765Y7341277D01*
Y7349608D01*
Y7341277D01*
X10638435Y7332947D01*
X10630104D01*
X10621774Y7341277D01*
Y7357939D01*
X10630104Y7366269D01*
X10613443Y7316286D02*
Y7282963D01*
X10621774Y7232979D02*
Y7266302D01*
X10655096Y7232979D01*
X10663427D01*
X10671757Y7241310D01*
Y7257971D01*
X10663427Y7266302D01*
D26*
X8230824Y7658100D02*
Y7758068D01*
X8180840Y7708084D02*
X8280808D01*
X7151324Y7772400D02*
Y7872368D01*
X7101340Y7822384D02*
X7201308D01*
D27*
X11499850Y6826299D02*
Y6953258D01*
X11474458Y6978650D01*
X11423675D01*
X11398283Y6953258D01*
Y6826299D01*
X11347499Y6978650D02*
X11296716D01*
X11322107D01*
Y6826299D01*
X11347499Y6851691D01*
X6781817Y6870708D02*
X6756425Y6845317D01*
Y6794533D01*
X6781817Y6769141D01*
X6883383D01*
X6908775Y6794533D01*
Y6845317D01*
X6883383Y6870708D01*
X6781817Y6921492D02*
X6756425Y6946884D01*
Y6997667D01*
X6781817Y7023059D01*
X6807208D01*
X6832600Y6997667D01*
Y6972275D01*
Y6997667D01*
X6857992Y7023059D01*
X6883383D01*
X6908775Y6997667D01*
Y6946884D01*
X6883383Y6921492D01*
X10121084Y7409693D02*
X10021116D01*
Y7459677D01*
X10037777Y7476338D01*
X10071100D01*
X10087761Y7459677D01*
Y7409693D01*
Y7443016D02*
X10121084Y7476338D01*
X10037777Y7509661D02*
X10021116Y7526323D01*
Y7559645D01*
X10037777Y7576306D01*
X10054439D01*
X10071100Y7559645D01*
Y7542984D01*
Y7559645D01*
X10087761Y7576306D01*
X10104422D01*
X10121084Y7559645D01*
Y7526323D01*
X10104422Y7509661D01*
X9785885Y7341824D02*
X9695915D01*
Y7386810D01*
X9710910Y7401805D01*
X9740900D01*
X9755895Y7386810D01*
Y7341824D01*
Y7371815D02*
X9785885Y7401805D01*
Y7491776D02*
Y7431795D01*
X9725905Y7491776D01*
X9710910D01*
X9695915Y7476781D01*
Y7446790D01*
X9710910Y7431795D01*
X9297216Y7534245D02*
X9397184D01*
Y7484261D01*
X9380523Y7467600D01*
X9347200D01*
X9330539Y7484261D01*
Y7534245D01*
Y7500923D02*
X9297216Y7467600D01*
Y7434277D02*
Y7400955D01*
Y7417616D01*
X9397184D01*
X9380523Y7434277D01*
X5893616Y7575490D02*
X5993584D01*
Y7525506D01*
X5976923Y7508845D01*
X5943600D01*
X5926939Y7525506D01*
Y7575490D01*
X5993584Y7408877D02*
Y7475522D01*
X5943600D01*
X5960261Y7442199D01*
Y7425538D01*
X5943600Y7408877D01*
X5910277D01*
X5893616Y7425538D01*
Y7458861D01*
X5910277Y7475522D01*
X5993584Y7375554D02*
X5926939D01*
X5893616Y7342232D01*
X5926939Y7308909D01*
X5993584D01*
X12578003Y7260613D02*
X12478086Y7257425D01*
X12476492Y7307384D01*
X12492614Y7324568D01*
X12525919Y7325630D01*
X12543103Y7309509D01*
X12544697Y7259550D01*
X12491551Y7357873D02*
X12474367Y7373995D01*
X12473304Y7407301D01*
X12489426Y7424485D01*
X12506079Y7425016D01*
X12523263Y7408895D01*
X12523794Y7392242D01*
X12523263Y7408895D01*
X12539384Y7426078D01*
X12556037Y7426610D01*
X12573221Y7410488D01*
X12574284Y7377183D01*
X12558162Y7359998D01*
X12471710Y7457259D02*
X12538322Y7459384D01*
X12570565Y7493752D01*
X12536197Y7525995D01*
X12469585Y7523870D01*
X12485175Y7557707D02*
X12467991Y7573829D01*
X12466929Y7607134D01*
X12483050Y7624319D01*
X12499703Y7624850D01*
X12516887Y7608728D01*
X12517418Y7592075D01*
X12516887Y7608728D01*
X12533009Y7625912D01*
X12549661Y7626443D01*
X12566846Y7610322D01*
X12567908Y7577017D01*
X12551787Y7559832D01*
X6641284Y7470745D02*
X6541316D01*
Y7420761D01*
X6557977Y7404100D01*
X6624623D01*
X6641284Y7420761D01*
Y7470745D01*
X6541316Y7370777D02*
Y7337455D01*
Y7354116D01*
X6641284D01*
X6624623Y7370777D01*
X7886717Y6921500D02*
X7861325Y6896108D01*
Y6845325D01*
X7886717Y6819933D01*
X7988283D01*
X8013675Y6845325D01*
Y6896108D01*
X7988283Y6921500D01*
X8013675Y6972284D02*
Y7023067D01*
Y6997676D01*
X7861325D01*
X7886717Y6972284D01*
%TF.MD5,a8b8ec40d2b3477f66b8080dbeba8377*%
M02*
