%TF.GenerationSoftware,Altium Limited,Altium Designer,25.0.2 (28)*%
G04 Layer_Physical_Order=1*
G04 Layer_Color=255*
%FSLAX45Y45*%
%MOMM*%
%TF.SameCoordinates,A0A746A1-3CD2-44F8-AC9A-FD4DD348DB9E*%
%TF.FilePolarity,Positive*%
%TF.FileFunction,Copper,L1,Top,Signal*%
%TF.Part,Single*%
G01*
G75*
%TA.AperFunction,SMDPad,CuDef*%
%ADD10R,1.35000X0.95000*%
G04:AMPARAMS|DCode=11|XSize=1.00429mm|YSize=3.18213mm|CornerRadius=0.43687mm|HoleSize=0mm|Usage=FLASHONLY|Rotation=180.000|XOffset=0mm|YOffset=0mm|HoleType=Round|Shape=RoundedRectangle|*
%AMROUNDEDRECTD11*
21,1,1.00429,2.30840,0,0,180.0*
21,1,0.13056,3.18213,0,0,180.0*
1,1,0.87373,-0.06528,1.15420*
1,1,0.87373,0.06528,1.15420*
1,1,0.87373,0.06528,-1.15420*
1,1,0.87373,-0.06528,-1.15420*
%
%ADD11ROUNDEDRECTD11*%
G04:AMPARAMS|DCode=12|XSize=1.00429mm|YSize=0.87213mm|CornerRadius=0.43606mm|HoleSize=0mm|Usage=FLASHONLY|Rotation=180.000|XOffset=0mm|YOffset=0mm|HoleType=Round|Shape=RoundedRectangle|*
%AMROUNDEDRECTD12*
21,1,1.00429,0.00000,0,0,180.0*
21,1,0.13216,0.87213,0,0,180.0*
1,1,0.87213,-0.06608,0.00000*
1,1,0.87213,0.06608,0.00000*
1,1,0.87213,0.06608,0.00000*
1,1,0.87213,-0.06608,0.00000*
%
%ADD12ROUNDEDRECTD12*%
%ADD13R,1.00429X0.87213*%
%TA.AperFunction,Conductor*%
%ADD14C,1.00000*%
%TA.AperFunction,TestPad*%
%ADD15C,1.40000*%
%TA.AperFunction,ComponentPad*%
G04:AMPARAMS|DCode=16|XSize=1.4mm|YSize=1.4mm|CornerRadius=0.35mm|HoleSize=0mm|Usage=FLASHONLY|Rotation=90.000|XOffset=0mm|YOffset=0mm|HoleType=Round|Shape=RoundedRectangle|*
%AMROUNDEDRECTD16*
21,1,1.40000,0.70000,0,0,90.0*
21,1,0.70000,1.40000,0,0,90.0*
1,1,0.70000,0.35000,0.35000*
1,1,0.70000,0.35000,-0.35000*
1,1,0.70000,-0.35000,-0.35000*
1,1,0.70000,-0.35000,0.35000*
%
%ADD16ROUNDEDRECTD16*%
%ADD17C,1.60000*%
G04:AMPARAMS|DCode=18|XSize=1.6mm|YSize=1.6mm|CornerRadius=0.4mm|HoleSize=0mm|Usage=FLASHONLY|Rotation=270.000|XOffset=0mm|YOffset=0mm|HoleType=Round|Shape=RoundedRectangle|*
%AMROUNDEDRECTD18*
21,1,1.60000,0.80000,0,0,270.0*
21,1,0.80000,1.60000,0,0,270.0*
1,1,0.80000,-0.40000,-0.40000*
1,1,0.80000,-0.40000,0.40000*
1,1,0.80000,0.40000,0.40000*
1,1,0.80000,0.40000,-0.40000*
%
%ADD18ROUNDEDRECTD18*%
%ADD19C,1.25000*%
%ADD20R,1.25000X1.25000*%
%ADD21C,1.40000*%
%ADD22C,1.55000*%
G36*
X12538276Y8171066D02*
X12552566Y8156776D01*
X12560300Y8138105D01*
Y8128000D01*
Y6858000D01*
Y6845369D01*
X12550633Y6822030D01*
X12532770Y6804167D01*
X12509431Y6794500D01*
X5946195D01*
X5927524Y6802234D01*
X5913234Y6816524D01*
X5905500Y6835195D01*
Y6845300D01*
Y8077198D01*
X5905501Y8077198D01*
X5905500Y8077199D01*
X5908427Y8100675D01*
X5908916Y8103130D01*
X5915617Y8119309D01*
X5925346Y8133870D01*
X5937728Y8146253D01*
X5952289Y8155982D01*
X5968468Y8162684D01*
X5985644Y8166100D01*
X5994400Y8166099D01*
X6629400Y8166100D01*
X9084807Y8171461D01*
X9094553Y8148005D01*
X8736198Y7789650D01*
X8525713D01*
X8524046Y7792145D01*
X8504067Y7805494D01*
X8480500Y7810182D01*
X8456468D01*
X8148375Y8118276D01*
X8132624Y8130362D01*
X8114282Y8137959D01*
X8094599Y8140551D01*
X6698498D01*
X6678815Y8137959D01*
X6660473Y8130362D01*
X6644722Y8118276D01*
X6586648Y8060202D01*
X6577753D01*
X6551582Y8053189D01*
X6528118Y8039642D01*
X6508960Y8020484D01*
X6495412Y7997020D01*
X6488400Y7970849D01*
Y7943755D01*
X6495412Y7917584D01*
X6508960Y7894120D01*
X6528118Y7874961D01*
X6551582Y7861414D01*
X6577753Y7854402D01*
X6604847D01*
X6631018Y7861414D01*
X6654482Y7874961D01*
X6673640Y7894120D01*
X6687188Y7917584D01*
X6694200Y7943755D01*
Y7952650D01*
X6729999Y7988449D01*
X8063098D01*
X8348917Y7702631D01*
Y7678599D01*
X8353605Y7655032D01*
X8366954Y7635053D01*
X8386933Y7621704D01*
X8410500Y7617016D01*
X8480500D01*
X8504067Y7621704D01*
X8524046Y7635053D01*
X8525713Y7637548D01*
X8767699D01*
X8787382Y7640140D01*
X8805724Y7647737D01*
X8821475Y7659823D01*
X9213601Y8051949D01*
X9272000D01*
Y7879699D01*
X9367459D01*
X9372400Y7879049D01*
X9383296D01*
X9392953Y7871638D01*
X9400551Y7868491D01*
X9411295Y7864041D01*
X9430979Y7861449D01*
X9704036D01*
X9723720Y7864041D01*
X9742062Y7871638D01*
X9752617Y7879738D01*
X9774828Y7885689D01*
X9794872Y7897262D01*
X9811237Y7913627D01*
X9822810Y7933671D01*
X9828800Y7956027D01*
Y7979171D01*
X9822810Y8001527D01*
X9811237Y8021571D01*
X9806259Y8026549D01*
X9816780Y8051949D01*
X9995221D01*
X10005742Y8026549D01*
X10000763Y8021570D01*
X9989190Y8001526D01*
X9983200Y7979170D01*
Y7956026D01*
X9989190Y7933670D01*
X10000763Y7913626D01*
X10017128Y7897261D01*
X10037172Y7885688D01*
X10048491Y7882655D01*
X10302696Y7628451D01*
X10292174Y7603051D01*
X10230399D01*
X10041974Y7791476D01*
X10026224Y7803562D01*
X10007882Y7811159D01*
X9988198Y7813750D01*
X9544402D01*
X9524718Y7811159D01*
X9513974Y7806709D01*
X9506376Y7803562D01*
X9490626Y7791476D01*
X9282501Y7583351D01*
X7531603D01*
X7399083Y7715871D01*
Y7739902D01*
X7394395Y7763469D01*
X7381046Y7783448D01*
X7361067Y7796797D01*
X7337500Y7801485D01*
X7267500D01*
X7243933Y7796797D01*
X7223954Y7783448D01*
X7210605Y7763469D01*
X7205917Y7739902D01*
Y7669902D01*
X7210605Y7646335D01*
X7223954Y7626356D01*
X7243933Y7613007D01*
X7267500Y7608319D01*
X7291532D01*
X7446326Y7453524D01*
X7462077Y7441438D01*
X7480419Y7433841D01*
X7500102Y7431249D01*
X9314002D01*
X9333685Y7433841D01*
X9352027Y7441438D01*
X9367778Y7453524D01*
X9575903Y7661649D01*
X9956697D01*
X10145122Y7473224D01*
X10160873Y7461138D01*
X10168470Y7457991D01*
X10179215Y7453541D01*
X10198898Y7450949D01*
X10331928D01*
X10340056Y7440356D01*
X10353718Y7429873D01*
X10369627Y7423283D01*
X10386700Y7421036D01*
X10466700D01*
X10483773Y7423283D01*
X10499682Y7429873D01*
X10513344Y7440356D01*
X10521472Y7450949D01*
X10719489D01*
Y7314080D01*
X10721864Y7296045D01*
X10728825Y7279239D01*
X10739899Y7264807D01*
X10754331Y7253733D01*
X10771137Y7246772D01*
X10771537Y7246719D01*
X10780641Y7219901D01*
X10683713Y7122973D01*
X10150422D01*
X10130739Y7120382D01*
X10112397Y7112784D01*
X10105547Y7107528D01*
X10053797Y7159277D01*
X10038047Y7171363D01*
X10019705Y7178960D01*
X10000021Y7181552D01*
X9504565D01*
X9484881Y7178960D01*
X9474137Y7174510D01*
X9466540Y7171363D01*
X9450789Y7159277D01*
X9359503Y7067991D01*
X9347163Y7077461D01*
X9328821Y7085058D01*
X9309137Y7087650D01*
X9172965D01*
X9148000Y7088701D01*
Y7148901D01*
X9055100D01*
Y7174301D01*
X9148000D01*
Y7234501D01*
X9079669D01*
X9072283Y7237561D01*
X9071603Y7237650D01*
X9041877Y7267376D01*
X9026127Y7279462D01*
X9007785Y7287059D01*
X8988101Y7289651D01*
X8504365D01*
X8504077Y7289939D01*
X8482323Y7302498D01*
X8458200Y7308962D01*
Y7213600D01*
Y7118238D01*
X8482323Y7124702D01*
X8504077Y7137261D01*
X8504365Y7137549D01*
X8956600D01*
X8962200Y7131950D01*
Y7109899D01*
X8962200Y7088702D01*
X8962199D01*
Y7084498D01*
X8962200D01*
Y6938699D01*
X9030532D01*
X9037916Y6935640D01*
X9057599Y6933049D01*
X9072601D01*
X9091586Y6935548D01*
X9277488D01*
X9277990Y6933673D01*
X9289563Y6913629D01*
X9305928Y6897264D01*
X9325972Y6885691D01*
X9348328Y6879701D01*
X9371472D01*
X9393828Y6885691D01*
X9413872Y6897264D01*
X9430237Y6913629D01*
X9441810Y6933673D01*
X9442366Y6935751D01*
X9536066Y7029451D01*
X9653000D01*
Y6980301D01*
X9740900D01*
X9828800D01*
Y7029451D01*
X9968520D01*
X9982550Y7015421D01*
Y6980100D01*
X9983200Y6975159D01*
Y6879700D01*
X10159000D01*
Y6947948D01*
X10181924Y6970872D01*
X10715214D01*
X10734897Y6973463D01*
X10753239Y6981060D01*
X10768990Y6993147D01*
X10900293Y7124449D01*
X11454700D01*
X11474383Y7127041D01*
X11485133Y7131493D01*
X11530315D01*
Y7197187D01*
X11530751Y7200500D01*
X11530315Y7203813D01*
Y7269506D01*
X11485133D01*
X11474383Y7273959D01*
X11454700Y7276551D01*
X10888954D01*
X10880115Y7285424D01*
X10870314Y7301951D01*
X10871911Y7314080D01*
Y7353449D01*
X11760200D01*
X11779883Y7356041D01*
X11798225Y7363638D01*
X11813976Y7375724D01*
X11893301Y7455049D01*
X12192321D01*
X12212005Y7457641D01*
X12225304Y7463149D01*
X12250900D01*
X12251556Y7463236D01*
X12320900D01*
X12337973Y7465483D01*
X12353882Y7472073D01*
X12367544Y7482556D01*
X12378027Y7496218D01*
X12384617Y7512127D01*
X12386864Y7529200D01*
Y7609200D01*
X12384617Y7626273D01*
X12378027Y7642182D01*
X12367544Y7655844D01*
X12353882Y7666327D01*
X12337973Y7672917D01*
X12320900Y7675164D01*
X12240900D01*
X12223827Y7672917D01*
X12207918Y7666327D01*
X12194256Y7655844D01*
X12183773Y7642182D01*
X12177183Y7626273D01*
X12175083Y7610317D01*
X12167439Y7607151D01*
X11861800D01*
X11842117Y7604559D01*
X11823775Y7596962D01*
X11808024Y7584876D01*
X11728699Y7505551D01*
X10871911D01*
Y7544920D01*
X10869536Y7562955D01*
X10862575Y7579761D01*
X10851501Y7594193D01*
X10837069Y7605267D01*
X10820263Y7612228D01*
X10802228Y7614603D01*
X10789172D01*
X10771137Y7612228D01*
X10754331Y7605267D01*
X10751442Y7603051D01*
X10521472D01*
X10513344Y7613644D01*
X10499682Y7624127D01*
X10483773Y7630717D01*
X10472751Y7632168D01*
Y7641998D01*
X10470159Y7661681D01*
X10465709Y7672426D01*
X10462562Y7680023D01*
X10450476Y7695774D01*
X10156043Y7990207D01*
X10153010Y8001526D01*
X10141437Y8021570D01*
X10136458Y8026549D01*
X10146979Y8051949D01*
X10535299D01*
X10982524Y7604724D01*
X10998275Y7592638D01*
X11016617Y7585041D01*
X11036300Y7582449D01*
X11454700D01*
X11474383Y7585041D01*
X11492725Y7592638D01*
X11508476Y7604724D01*
X11520562Y7620475D01*
X11528159Y7638817D01*
X11528305Y7639922D01*
X11528538Y7640486D01*
X11530910Y7658500D01*
X11528538Y7676514D01*
X11528305Y7677078D01*
X11528159Y7678184D01*
X11520562Y7696525D01*
X11508476Y7712276D01*
X11492725Y7724362D01*
X11474383Y7731959D01*
X11454700Y7734551D01*
X11067801D01*
X10650927Y8151425D01*
X10660622Y8174902D01*
X12446000Y8178800D01*
X12519605D01*
X12538276Y8171066D01*
D02*
G37*
%LPC*%
G36*
X6250300Y7941864D02*
X6223000D01*
Y7848600D01*
X6316264D01*
Y7875900D01*
X6314017Y7892973D01*
X6307427Y7908882D01*
X6296944Y7922544D01*
X6283282Y7933027D01*
X6267373Y7939617D01*
X6250300Y7941864D01*
D02*
G37*
G36*
X6197600D02*
X6170300D01*
X6153227Y7939617D01*
X6137318Y7933027D01*
X6123656Y7922544D01*
X6113173Y7908882D01*
X6106583Y7892973D01*
X6104336Y7875900D01*
Y7848600D01*
X6197600D01*
Y7941864D01*
D02*
G37*
G36*
X6316264Y7823200D02*
X6223000D01*
Y7729936D01*
X6250300D01*
X6267373Y7732183D01*
X6283282Y7738773D01*
X6296944Y7749256D01*
X6307427Y7762918D01*
X6314017Y7778827D01*
X6316264Y7795900D01*
Y7823200D01*
D02*
G37*
G36*
X6197600D02*
X6104336D01*
Y7795900D01*
X6106583Y7778827D01*
X6113173Y7762918D01*
X6123656Y7749256D01*
X6137318Y7738773D01*
X6153227Y7732183D01*
X6170300Y7729936D01*
X6197600D01*
Y7823200D01*
D02*
G37*
G36*
X6224176Y7687300D02*
X6196424D01*
X6169617Y7680117D01*
X6145583Y7666241D01*
X6125959Y7646617D01*
X6112083Y7622583D01*
X6104900Y7595776D01*
Y7568024D01*
X6112083Y7541217D01*
X6125959Y7517183D01*
X6145583Y7497559D01*
X6169617Y7483683D01*
X6196424Y7476500D01*
X6224176D01*
X6250983Y7483683D01*
X6275017Y7497559D01*
X6294641Y7517183D01*
X6308517Y7541217D01*
X6315700Y7568024D01*
Y7595776D01*
X6308517Y7622583D01*
X6294641Y7646617D01*
X6275017Y7666241D01*
X6250983Y7680117D01*
X6224176Y7687300D01*
D02*
G37*
G36*
X12294776Y7420600D02*
X12293600D01*
Y7327900D01*
X12386300D01*
Y7329076D01*
X12379117Y7355883D01*
X12365241Y7379917D01*
X12345617Y7399541D01*
X12321583Y7413417D01*
X12294776Y7420600D01*
D02*
G37*
G36*
X12268200D02*
X12267024D01*
X12240217Y7413417D01*
X12216183Y7399541D01*
X12196559Y7379917D01*
X12182683Y7355883D01*
X12175500Y7329076D01*
Y7327900D01*
X12268200D01*
Y7420600D01*
D02*
G37*
G36*
X10440576Y7378400D02*
X10439400D01*
Y7285700D01*
X10532100D01*
Y7286876D01*
X10524917Y7313683D01*
X10511041Y7337717D01*
X10491417Y7357341D01*
X10467383Y7371217D01*
X10440576Y7378400D01*
D02*
G37*
G36*
X10414000D02*
X10412824D01*
X10386017Y7371217D01*
X10361983Y7357341D01*
X10342359Y7337717D01*
X10328483Y7313683D01*
X10321300Y7286876D01*
Y7285700D01*
X10414000D01*
Y7378400D01*
D02*
G37*
G36*
X8432800Y7308962D02*
X8408677Y7302498D01*
X8386923Y7289939D01*
X8369161Y7272177D01*
X8356602Y7250423D01*
X8350138Y7226300D01*
X8432800D01*
Y7308962D01*
D02*
G37*
G36*
X6224176Y7433300D02*
X6196424D01*
X6169617Y7426117D01*
X6145583Y7412241D01*
X6125959Y7392617D01*
X6112083Y7368583D01*
X6104900Y7341776D01*
Y7314024D01*
X6112083Y7287217D01*
X6125959Y7263183D01*
X6145583Y7243559D01*
X6169617Y7229683D01*
X6196424Y7222500D01*
X6224176D01*
X6250983Y7229683D01*
X6275017Y7243559D01*
X6294641Y7263183D01*
X6308517Y7287217D01*
X6315700Y7314024D01*
Y7341776D01*
X6308517Y7368583D01*
X6294641Y7392617D01*
X6275017Y7412241D01*
X6250983Y7426117D01*
X6224176Y7433300D01*
D02*
G37*
G36*
X7289800Y7300260D02*
X7265677Y7293796D01*
X7243923Y7281237D01*
X7226161Y7263475D01*
X7213602Y7241721D01*
X7207138Y7217598D01*
X7289800D01*
Y7300260D01*
D02*
G37*
G36*
X12386300Y7302500D02*
X12293600D01*
Y7209800D01*
X12294776D01*
X12321583Y7216983D01*
X12345617Y7230859D01*
X12365241Y7250483D01*
X12379117Y7274517D01*
X12386300Y7301324D01*
Y7302500D01*
D02*
G37*
G36*
X12268200D02*
X12175500D01*
Y7301324D01*
X12182683Y7274517D01*
X12196559Y7250483D01*
X12216183Y7230859D01*
X12240217Y7216983D01*
X12267024Y7209800D01*
X12268200D01*
Y7302500D01*
D02*
G37*
G36*
X10532100Y7260300D02*
X10439400D01*
Y7167600D01*
X10440576D01*
X10467383Y7174783D01*
X10491417Y7188659D01*
X10511041Y7208283D01*
X10524917Y7232317D01*
X10532100Y7259124D01*
Y7260300D01*
D02*
G37*
G36*
X10414000D02*
X10321300D01*
Y7259124D01*
X10328483Y7232317D01*
X10342359Y7208283D01*
X10361983Y7188659D01*
X10386017Y7174783D01*
X10412824Y7167600D01*
X10414000D01*
Y7260300D01*
D02*
G37*
G36*
X8432800Y7200900D02*
X8350138D01*
X8356602Y7176777D01*
X8369161Y7155023D01*
X8386923Y7137261D01*
X8408677Y7124702D01*
X8432800Y7118238D01*
Y7200900D01*
D02*
G37*
G36*
X7315200Y7300260D02*
Y7204898D01*
Y7109536D01*
X7339323Y7115999D01*
X7361077Y7128559D01*
X7378839Y7146321D01*
X7391398Y7168075D01*
X7397900Y7192338D01*
Y7198007D01*
X7399953Y7213600D01*
X7397361Y7233283D01*
X7389764Y7251625D01*
X7377678Y7267376D01*
X7365901Y7276413D01*
X7361077Y7281237D01*
X7339323Y7293796D01*
X7315200Y7300260D01*
D02*
G37*
G36*
X7289800Y7192198D02*
X7207138D01*
X7213602Y7168075D01*
X7226161Y7146321D01*
X7243923Y7128559D01*
X7265677Y7115999D01*
X7289800Y7109536D01*
Y7192198D01*
D02*
G37*
G36*
X6224176Y7179300D02*
X6196424D01*
X6169617Y7172117D01*
X6145583Y7158241D01*
X6125959Y7138617D01*
X6112083Y7114583D01*
X6104900Y7087776D01*
Y7060024D01*
X6112083Y7033217D01*
X6125959Y7009183D01*
X6145583Y6989559D01*
X6169617Y6975683D01*
X6196424Y6968500D01*
X6224176D01*
X6250983Y6975683D01*
X6269824Y6986561D01*
X6297324Y6959060D01*
X6313075Y6946974D01*
X6320672Y6943827D01*
X6331417Y6939377D01*
X6351100Y6936785D01*
X6512291D01*
X6528118Y6920958D01*
X6551582Y6907411D01*
X6577753Y6900398D01*
X6604847D01*
X6631018Y6907411D01*
X6654482Y6920958D01*
X6673640Y6940116D01*
X6687188Y6963580D01*
X6694200Y6989751D01*
Y7016845D01*
X6687188Y7043016D01*
X6673640Y7066480D01*
X6654482Y7085639D01*
X6631018Y7099186D01*
X6604847Y7106198D01*
X6577753D01*
X6551582Y7099186D01*
X6533744Y7088887D01*
X6382601D01*
X6343812Y7127676D01*
X6328061Y7139762D01*
X6309719Y7147359D01*
X6290036Y7149951D01*
X6283307D01*
X6275017Y7158241D01*
X6250983Y7172117D01*
X6224176Y7179300D01*
D02*
G37*
G36*
X9828800Y6954901D02*
X9753600D01*
Y6879701D01*
X9828800D01*
Y6954901D01*
D02*
G37*
G36*
X9728200D02*
X9653000D01*
Y6879701D01*
X9728200D01*
Y6954901D01*
D02*
G37*
%LPD*%
D10*
X9055100Y7011599D02*
D03*
Y7161601D02*
D03*
D11*
X10795700Y7429500D02*
D03*
D12*
X11454700Y7658500D02*
D03*
Y7429500D02*
D03*
D13*
Y7200500D02*
D03*
D14*
X7302500Y7192198D02*
X7323902Y7213600D01*
X8445500D02*
X8988101D01*
X9037600Y7164101D01*
X9052600D01*
X9055100Y7161601D01*
Y7011599D02*
X9057599Y7009100D01*
X9072601D01*
X6698498Y8064500D02*
X8094599D01*
X6591300Y7957302D02*
X6698498Y8064500D01*
X8094599D02*
X8445500Y7713599D01*
X11036300Y7658500D02*
X11454700D01*
X9182100Y8128000D02*
X10566800D01*
X11036300Y7658500D01*
X10058600Y6980100D02*
Y7046922D01*
X10083600Y6980100D02*
X10150422Y7046922D01*
X10715214D02*
X10868791Y7200500D01*
X10150422Y7046922D02*
X10715214D01*
X9504565Y7105501D02*
X10000021D01*
X10058600Y6980100D02*
X10071100Y6967600D01*
X10000021Y7105501D02*
X10058600Y7046922D01*
X9359900Y6967601D02*
X9366665D01*
X9504565Y7105501D01*
X10198898Y7527000D02*
X10426700D01*
X9988198Y7737700D02*
X10198898Y7527000D01*
X10396700Y7557000D02*
X10426700Y7527000D01*
X10071100Y7967598D02*
X10396700Y7641998D01*
Y7557000D02*
Y7641998D01*
X8445500Y7713599D02*
X8767699D01*
X9182100Y8128000D01*
X9055100Y7011599D02*
X9309137D01*
X10868791Y7200500D02*
X11454700D01*
X9430979Y7937500D02*
X9704036D01*
X9734135Y7967599D01*
X9740900D01*
X9359900D02*
X9372400Y7955099D01*
X9413379D01*
X9430979Y7937500D01*
X9544402Y7737700D02*
X9988198D01*
X9314002Y7507300D02*
X9544402Y7737700D01*
X7500102Y7507300D02*
X9314002D01*
X7302500Y7704902D02*
X7500102Y7507300D01*
X10795700Y7429500D02*
X11454700D01*
X10795700D02*
Y7526785D01*
X10426700Y7527000D02*
X10795485D01*
X10795700Y7526785D01*
X12269800Y7304100D02*
X12280900Y7315200D01*
X11454700Y7429500D02*
X11760200D01*
X11861800Y7531100D01*
X12192321D01*
X12200421Y7539200D02*
X12250900D01*
X12280900Y7569200D01*
X12192321Y7531100D02*
X12200421Y7539200D01*
X6351100Y7012836D02*
X6569062D01*
X6273800Y7073900D02*
X6290036D01*
X6569062Y7012836D02*
X6578600Y7003298D01*
X6290036Y7073900D02*
X6351100Y7012836D01*
D15*
X8445500Y7213600D02*
D03*
D16*
Y7713599D02*
D03*
X7302500Y7704902D02*
D03*
D17*
X10426700Y7273000D02*
D03*
X12280900Y7315200D02*
D03*
X6210300Y7581900D02*
D03*
Y7327900D02*
D03*
Y7073900D02*
D03*
D18*
X10426700Y7527000D02*
D03*
X12280900Y7569200D02*
D03*
X6210300Y7835900D02*
D03*
D19*
X10071100Y7967598D02*
D03*
X9359900Y6967601D02*
D03*
X9740900Y7967599D02*
D03*
D20*
X10071100Y6967600D02*
D03*
X9359900Y7967599D02*
D03*
X9740900Y6967601D02*
D03*
D21*
X7302500Y7204898D02*
D03*
D22*
X6591300Y7957302D02*
D03*
Y7003298D02*
D03*
%TF.MD5,7371ff84991983938775d711834ab611*%
M02*
