%TF.GenerationSoftware,Altium Limited,Altium Designer,25.0.2 (28)*%
G04 Layer_Color=2752767*
%FSLAX45Y45*%
%MOMM*%
%TF.SameCoordinates,A0A746A1-3CD2-44F8-AC9A-FD4DD348DB9E*%
%TF.FilePolarity,Positive*%
%TF.FileFunction,Drawing*%
%TF.Part,Single*%
G01*
G75*
%TA.AperFunction,NonConductor*%
%ADD40C,0.12700*%
%ADD41C,0.16933*%
D40*
X8394700Y7162800D02*
Y7264400D01*
X8496300D01*
Y7162800D01*
X8394700D01*
Y7662799D02*
Y7764399D01*
X8496300D01*
Y7662799D01*
X8394700D01*
X10426700Y7222200D02*
X10375900Y7323800D01*
X10477500D01*
X10426700Y7222200D01*
Y7476200D02*
X10375900Y7577800D01*
X10477500D01*
X10426700Y7476200D01*
X7251700Y7654102D02*
Y7755702D01*
X7353300D01*
Y7654102D01*
X7251700D01*
Y7154098D02*
Y7255698D01*
X7353300D01*
Y7154098D01*
X7251700D01*
X12280900Y7264400D02*
X12230100Y7366000D01*
X12331700D01*
X12280900Y7264400D01*
Y7518400D02*
X12230100Y7620000D01*
X12331700D01*
X12280900Y7518400D01*
X6591300Y7906502D02*
X6616700Y7931902D01*
X6642100D01*
X6616700Y7957302D01*
X6642100Y7982702D01*
X6616700D01*
X6591300Y8008102D01*
X6565900Y7982702D01*
X6540500D01*
X6565900Y7957302D01*
X6540500Y7931902D01*
X6565900D01*
X6591300Y7906502D01*
Y6952498D02*
X6616700Y6977898D01*
X6642100D01*
X6616700Y7003298D01*
X6642100Y7028698D01*
X6616700D01*
X6591300Y7054098D01*
X6565900Y7028698D01*
X6540500D01*
X6565900Y7003298D01*
X6540500Y6977898D01*
X6565900D01*
X6591300Y6952498D01*
X6210300Y7531100D02*
X6159500Y7632700D01*
X6261100D01*
X6210300Y7531100D01*
Y7785100D02*
X6159500Y7886700D01*
X6261100D01*
X6210300Y7785100D01*
Y7277100D02*
X6159500Y7378700D01*
X6261100D01*
X6210300Y7277100D01*
Y7023100D02*
X6159500Y7124700D01*
X6261100D01*
X6210300Y7023100D01*
D41*
X10121900Y7967598D02*
G03*
X10121900Y7967598I-50800J0D01*
G01*
Y6967600D02*
G03*
X10121900Y6967600I-50800J0D01*
G01*
X9410700Y6967601D02*
G03*
X9410700Y6967601I-50800J0D01*
G01*
Y7967599D02*
G03*
X9410700Y7967599I-50800J0D01*
G01*
X9791700D02*
G03*
X9791700Y7967599I-50800J0D01*
G01*
Y6967601D02*
G03*
X9791700Y6967601I-50800J0D01*
G01*
%TF.MD5,be5b7b684f5db2e266840f975fda1cff*%
M02*
